<svg viewBox="0 0 50 50" xmlns="http://www.w3.org/2000/svg"><path d="m25 1a1.0001 1.0001 0 0 0 -.931641.6386719l-6.166015 15.8964841-16.95312525.865235a1.0001 1.0001 0 0 0 -.58203125 1.773437l13.2011715 10.792969-4.3359371 16.376953a1.0001 1.0001 0 0 0 1.5078121 1.097656l14.259766-9.152344 14.259766 9.152344a1.0001 1.0001 0 0 0 1.507812-1.097656l-4.335937-16.376953 13.201171-10.792969a1.0001 1.0001 0 0 0 -.582031-1.773437l-16.953125-.865235-6.166015-15.8964841a1.0001 1.0001 0 0 0 -.931641-.6386719zm0 3.7636719 5.466797 14.0976561a1.0001 1.0001 0 0 0 .882812.636719l15.009766.767578-11.691406 9.560547a1.0001 1.0001 0 0 0 -.333985 1.029297l3.841797 14.513672-12.634765-8.111329a1.0001 1.0001 0 0 0 -1.082032 0l-12.634765 8.111329 3.841797-14.513672a1.0001 1.0001 0 0 0 -.333985-1.029297l-11.691406-9.560547 15.009766-.767578a1.0001 1.0001 0 0 0 .882812-.636719z"/></svg>