<svg viewBox="0 0 794.72 339.53" xmlns="http://www.w3.org/2000/svg"><g transform="translate(-87.14 -245.28)"><g fill="#b3aac6"><path d="m396.5 363.13q-8 0-8-8.57t8-8.57q8 0 8 8.57t-8 8.57zm-7.06 6h14.12v74.11h-14.12z"/><path d="m422 388.05q0-21 21.7-21a48.42 48.42 0 0 1 13.65 1.82v14.54a33.53 33.53 0 0 0 -11.35-2.11c-3.66 0-6.22.6-7.7 1.82s-2.22 3.24-2.22 6.1v32.45c0 2.85.72 4.89 2.16 6.1s4 1.81 7.76 1.81a34.06 34.06 0 0 0 11.43-2.07v14.41a45.19 45.19 0 0 1 -13.76 1.94q-21.7 0-21.7-21z"/><path d="m473.78 347.55h14v22.07a29.8 29.8 0 0 1 12-2.34 15.69 15.69 0 0 1 11.08 4.09q4.44 4.1 4.44 12.53v59.31h-14.3v-55.94c0-3.72-1.72-5.58-5.14-5.58a16 16 0 0 0 -7.93 2.08v59.44h-14.15z"/><path d="m539.7 393.76h23.8v13.37h-23.8z"/><path d="m587.88 347.55h14.12v95.66h-14.12z"/><path d="m622.76 422.57v-35.57q0-9.6 5.19-15.12t15.69-5.52q10.5 0 15.45 5.52t5 15.12v24.92h-27.68v9.48q0 4.66 2.44 6.75t9.34 2.07a43.65 43.65 0 0 0 14.11-2.46v13.89a52.43 52.43 0 0 1 -16.1 2.35q-23.44 0-23.44-21.43zm13.65-22.84h14.59v-12.59q0-7.67-7.29-7.66c-4.87 0-7.29 2.55-7.29 7.66z"/><path d="m710.48 367.28h2.34v14.54h-3.15a20.18 20.18 0 0 0 -11.67 3.89v57.5h-14.12v-75.54h13.3v5.33c2.26-1.64 3.81-2.72 4.67-3.24a15.62 15.62 0 0 1 8.63-2.48z"/><path d="m742.33 371a27.51 27.51 0 0 1 13.42-3.76 14.28 14.28 0 0 1 10.73 4.22q4.08 4.22 4.08 12.4v59.31h-14.35v-55.9q0-5.58-5.13-5.58a14.91 14.91 0 0 0 -7.93 2.46v59.06h-14.15v-75.54h13.3z"/><path d="m790.74 422.57v-35.57q0-9.6 5.19-15.12t15.69-5.52q10.5 0 15.46 5.52t4.92 15.12v24.92h-27.61v9.48q0 4.66 2.45 6.75t9.33 2.07a43.71 43.71 0 0 0 14.12-2.46v13.89a52.43 52.43 0 0 1 -16.1 2.33q-23.45.02-23.45-21.41zm13.65-22.84h14.61v-12.59q0-7.67-7.29-7.66t-7.29 7.66z"/><path d="m857.35 393.76h23.8v13.37h-23.8z"/></g><path d="m394.86 555.33q-5.86-8.49-5.86-25.79t5.88-25.69q5.88-8.39 18.42-8.39t18.42 8.39q5.88 8.38 5.88 25.69t-5.88 25.79q-5.88 8.5-18.42 8.5t-18.44-8.5zm27-4.27q3.08-2.16 4.33-7.19a80.93 80.93 0 0 0 0-28.45q-1.26-5-4.33-7.19c-2-1.44-4.91-2.17-8.6-2.17s-6.56.73-8.6 2.17-3.49 3.84-4.33 7.19a80.93 80.93 0 0 0 0 28.45c.84 3.35 2.29 5.75 4.33 7.19s4.91 2.16 8.6 2.16 6.58-.72 8.62-2.16z" fill="#1d1d1b"/><path d="m485.12 545.87v-28.56q0-11-8.85-11a15.76 15.76 0 0 0 -7.77 2.33 16 16 0 0 0 -6.22 6.11v31.15l.68 16.22h-11.09l.68-16.22v-33l-.68-15.69h8.46l1.95 8.66a18 18 0 0 1 7.43-6.92 22.22 22.22 0 0 1 10.36-2.49 13.25 13.25 0 0 1 10.84 4.81q3.93 4.81 3.93 13.58v31l.68 16.22h-11.08z" fill="#1d1d1b"/><path d="m515.65 545.87v-54.62l-.65-15.69h11.08l-.68 15.69v54.62l.68 16.22h-11.08z" fill="#1d1d1b"/><path d="m546.85 485.62a5.64 5.64 0 0 1 -1.94-4.43 5.81 5.81 0 0 1 1.94-4.49 6.79 6.79 0 0 1 4.77-1.79 6.66 6.66 0 0 1 4.66 1.79 5.82 5.82 0 0 1 2 4.49 5.65 5.65 0 0 1 -2 4.43 6.75 6.75 0 0 1 -4.66 1.73 6.88 6.88 0 0 1 -4.77-1.73zm-.19 60.25v-33l-.59-15.69h11l-.68 15.69v33l.68 16.22h-11z" fill="#1d1d1b"/><path d="m610.33 545.87v-28.56q0-11-8.84-11a15.76 15.76 0 0 0 -7.78 2.33 16 16 0 0 0 -6.22 6.11v31.15l.68 16.22h-11.08l.68-16.22v-33l-.68-15.69h8.45l2 8.66a18 18 0 0 1 7.43-6.92 22.22 22.22 0 0 1 10.36-2.49 13.25 13.25 0 0 1 10.84 4.81q3.93 4.81 3.93 13.58v31l.69 16.22h-11.14z" fill="#1d1d1b"/><path d="m643.92 554.9q-5.59-8.49-5.59-25.36 0-16.44 5.93-25.26t18.18-8.82q11.56 0 17.16 6.76t6.56 21.91l-2.43 10.38h-35.09a33.29 33.29 0 0 0 1.7 10.66 11.21 11.21 0 0 0 4.81 5.89q3.3 2 9.14 2a36 36 0 0 0 10.64-1.46 23.44 23.44 0 0 0 7.93-4.06l1.65.87-2.14 9.52a22.62 22.62 0 0 1 -8.17 4.21 43.82 43.82 0 0 1 -11.76 1.3q-12.93-.05-18.52-8.54zm32.13-29.47c0-6.93-1-11.88-3.06-14.88s-5.43-4.49-10.16-4.49a15.49 15.49 0 0 0 -8.21 1.9 10.87 10.87 0 0 0 -4.48 6.11 40.48 40.48 0 0 0 -1.6 11.36z" fill="#1d1d1b"/><path d="m704.39 560.47a7.1 7.1 0 0 1 -2.39-5.47 7.46 7.46 0 0 1 2.38-5.63 8.75 8.75 0 0 1 11.76 0 7.46 7.46 0 0 1 2.38 5.63 7.1 7.1 0 0 1 -2.38 5.51 9.05 9.05 0 0 1 -11.76 0z" fill="#1d1d1b"/><path d="m739.09 555.33q-5.88-8.49-5.88-25.79t5.88-25.69q5.88-8.39 18.43-8.39t18.42 8.39q5.88 8.38 5.88 25.69t-5.88 25.79q-5.88 8.5-18.42 8.5t-18.43-8.5zm27-4.27q3.06-2.16 4.33-7.19a80.93 80.93 0 0 0 0-28.45q-1.28-5-4.33-7.19c-2-1.44-4.91-2.17-8.6-2.17s-6.57.73-8.61 2.17-3.48 3.84-4.32 7.19a80.3 80.3 0 0 0 0 28.45q1.26 5 4.32 7.19t8.61 2.16q5.57 0 8.63-2.16z" fill="#1d1d1b"/><path d="m829.75 498-1.56 9.52-1.26 1a9.67 9.67 0 0 0 -3.8-1.62 22.3 22.3 0 0 0 -5.34-.65q-7.2 0-11.28 6.6v33.1l.68 16.22h-11.08l.68-16.22v-33l-.68-15.69h8.46l1.75 7.36a17.53 17.53 0 0 1 6-6 14.91 14.91 0 0 1 7.68-2.11q7-.07 9.75 1.49z" fill="#1d1d1b"/><path d="m881.85 497.19-.58 16.12v38.62q0 16.55-8.07 24.71t-23.33 8.17l-4.38-8.33.68-.86a33.27 33.27 0 0 0 13.27-2.49 20.58 20.58 0 0 0 8.95-7 17.36 17.36 0 0 0 3.16-10.22v-1.19a14.67 14.67 0 0 1 -5.69 6 15.31 15.31 0 0 1 -7.92 2.22 18 18 0 0 1 -16-8.54q-5.64-8.55-5.64-24.88 0-17.41 5.3-25.53t16.19-8.11q9.13 0 14.39 4.86l.58-3.57zm-10.3 50.73v-39.26q-4-2.27-11.28-2.27c-3.57 0-6.34.69-8.31 2.05s-3.39 3.72-4.23 7a60.42 60.42 0 0 0 -1.27 14.07q0 12.44 3 17.74t9.82 5.3q8.27.03 12.27-4.63z" fill="#1d1d1b"/><path d="m278.12 392.81c-6.85-9.86-21.31-23.26-48.13-23.26-28.62 0-43 14.07-48.91 24.72-11.91 21.3 9.7 55.63 17.74 70 4.11 7.33 4.16 13.4 6 17.88a4.47 4.47 0 0 1 2.88 1c4.69 3.94 12.1 5.85 22.63 5.85 10.93 0 19.28-2.14 23.51-6a4.44 4.44 0 0 1 3.47-1.15c2.1-4.37 2.51-10.15 6.34-16.84 7.81-13.68 29.54-50.51 14.47-72.2z" fill="none"/><path d="m205.43 492.53a1.66 1.66 0 0 0 -.45 1.18c.15 5.93 9.65 12.32 22.5 12.77h2.42c9.9-.23 19.66-3.64 24.3-8.5 1.56-1.64 2.33-3.24 2.29-4.76a2.16 2.16 0 0 0 -.18-1c-7.58 4.65-18 5.72-26 5.72-10.55.06-18.75-1.74-24.88-5.41z" fill="#b3aac6"/><path d="m230 515.49c-.95 0-1.88 0-2.81 0-5.46-.09-9.35-.5-13.21-1.84a.57.57 0 0 0 0 .12c.11 4.48 6.53 7.36 16.35 7.36 6.63 0 11.9-1.5 14.44-4.11a5 5 0 0 0 1.56-3.69 2.29 2.29 0 0 0 0-.25c-4.33 1.61-9.7 2.4-16.33 2.41z" fill="#b3aac6"/><path d="m315.41 291.48h-58.48c.49-10.28 8.93-14.36 8.93-29.27 0-16.22-18.34-16.93-43.84-16.93s-44.46.42-44.46 16.93c0 14.92 8.48 18.85 9 29.27h-58.56a41 41 0 0 0 -40.87 41.1v36.31s7.73-5.18 22.62-5.18c16.42 0 22.65 18.93 22.65 63.39s-6.52 60.82-22.65 60.82c-14.88 0-22.62-4.17-22.62-4.17v37.25a41 41 0 0 0 40.87 41.1h187.4a41 41 0 0 0 40.88-41.1v-188.42a41 41 0 0 0 -40.87-41.1zm-89.73 36.26a5.06 5.06 0 0 1 10.12 0v26.93a5.06 5.06 0 1 1 -10.12 0zm-69.49 26.05a5.06 5.06 0 0 1 7.16-7.16l19 19.05a5.06 5.06 0 1 1 -7.15 7.16zm103.81 129.26.47.46c2.5 2.44 4.86 4.75 5 9.5.1 3.94-1.55 7.81-4.78 11.19a28.45 28.45 0 0 1 -6.24 4.82 11.64 11.64 0 0 1 .84 4.06 13.84 13.84 0 0 1 -4.1 10.19c-3 3.12-9.12 6.83-20.88 6.83-18.38 0-25.14-8.32-25.34-16.11a9.92 9.92 0 0 1 1-4.65c-6.05-3.89-9.87-9.33-10-15.4-.11-4.54 2.36-7.12 4.55-9.39l1-1a4.44 4.44 0 0 1 3.3-1.42c-1.83-4.48-1.88-10.55-6-17.88-8-14.34-29.65-48.67-17.74-70 5.95-10.65 20.29-24.72 48.91-24.72 26.82 0 41.28 13.4 48.13 23.26 15.07 21.69-6.66 58.52-14.48 72.16-3.83 6.69-4.24 12.47-6.34 16.84a4.46 4.46 0 0 1 2.7 1.26zm40.89-129.26-19.05 19a5.06 5.06 0 1 1 -7.15-7.16l19-19.05a5.06 5.06 0 0 1 7.16 7.16z" fill="#b3aac6"/><path d="m182.39 372.84a5.06 5.06 0 0 0 0-7.16l-19-19.05a5.06 5.06 0 0 0 -7.16 7.16l19.05 19a5.06 5.06 0 0 0 7.15 0z" fill="#b3aac6"/><path d="m182.39 372.84a5.06 5.06 0 0 0 0-7.16l-19-19.05a5.06 5.06 0 0 0 -7.16 7.16l19.05 19a5.06 5.06 0 0 0 7.15 0z"/><path d="m293.75 346.63-19 19.05a5.06 5.06 0 1 0 7.15 7.16l19.05-19a5.06 5.06 0 0 0 -7.16-7.16z" fill="#b3aac6"/><path d="m293.75 346.63-19 19.05a5.06 5.06 0 1 0 7.15 7.16l19.05-19a5.06 5.06 0 0 0 -7.16-7.16z"/><path d="m230.74 359.73a5.06 5.06 0 0 0 5.06-5.06v-26.93a5.06 5.06 0 0 0 -10.12 0v26.93a5.06 5.06 0 0 0 5.06 5.06z" fill="#b3aac6"/><path d="m230.74 359.73a5.06 5.06 0 0 0 5.06-5.06v-26.93a5.06 5.06 0 0 0 -10.12 0v26.93a5.06 5.06 0 0 0 5.06 5.06z"/><path d="m253.83 483c-4.23 3.9-12.58 6-23.51 6-10.53 0-17.94-1.91-22.63-5.85a4.47 4.47 0 0 0 -2.88-1c2.25 5.49 7.18 8.57 25.63 8.57 18.78 0 24.19-3.3 26.86-8.88a4.44 4.44 0 0 0 -3.47 1.16z" fill="#1c1d1c"/><path d="m230.44 490.69c-18.45 0-23.38-3.08-25.63-8.57a4.44 4.44 0 0 0 -3.3 1.42l-1 1c-2.19 2.27-4.66 4.85-4.55 9.39.16 6.07 4 11.51 10 15.4a9.92 9.92 0 0 0 -1 4.65c.2 7.79 7 16.11 25.34 16.11 11.76 0 17.84-3.71 20.88-6.83a13.84 13.84 0 0 0 4.1-10.19 11.64 11.64 0 0 0 -.84-4.06 28.45 28.45 0 0 0 6.24-4.82c3.23-3.38 4.88-7.25 4.78-11.19-.13-4.75-2.49-7.06-5-9.5l-.47-.46a4.46 4.46 0 0 0 -2.72-1.24c-2.64 5.59-8.05 8.89-26.83 8.89zm14.32 26.31c-2.54 2.61-7.81 4.11-14.44 4.11-9.82 0-16.24-2.88-16.35-7.36a.57.57 0 0 1 0-.12c3.86 1.34 7.75 1.75 13.21 1.84h2.81c6.63 0 12-.8 16.3-2.43a2.29 2.29 0 0 1 0 .25 5 5 0 0 1 -1.53 3.71zm11.73-23.76c0 1.52-.73 3.12-2.29 4.76-4.64 4.86-14.4 8.27-24.3 8.5h-2.42c-12.85-.45-22.35-6.84-22.5-12.77a1.66 1.66 0 0 1 .45-1.18c6.13 3.67 14.33 5.46 24.89 5.46 8 0 18.41-1.07 26-5.72a2.16 2.16 0 0 1 .17.95z" fill="#b3aac6"/><path d="m230.44 490.69c-18.45 0-23.38-3.08-25.63-8.57a4.44 4.44 0 0 0 -3.3 1.42l-1 1c-2.19 2.27-4.66 4.85-4.55 9.39.16 6.07 4 11.51 10 15.4a9.92 9.92 0 0 0 -1 4.65c.2 7.79 7 16.11 25.34 16.11 11.76 0 17.84-3.71 20.88-6.83a13.84 13.84 0 0 0 4.1-10.19 11.64 11.64 0 0 0 -.84-4.06 28.45 28.45 0 0 0 6.24-4.82c3.23-3.38 4.88-7.25 4.78-11.19-.13-4.75-2.49-7.06-5-9.5l-.47-.46a4.46 4.46 0 0 0 -2.72-1.24c-2.64 5.59-8.05 8.89-26.83 8.89zm14.32 26.31c-2.54 2.61-7.81 4.11-14.44 4.11-9.82 0-16.24-2.88-16.35-7.36a.57.57 0 0 1 0-.12c3.86 1.34 7.75 1.75 13.21 1.84h2.81c6.63 0 12-.8 16.3-2.43a2.29 2.29 0 0 1 0 .25 5 5 0 0 1 -1.53 3.71zm11.73-23.76c0 1.52-.73 3.12-2.29 4.76-4.64 4.86-14.4 8.27-24.3 8.5h-2.42c-12.85-.45-22.35-6.84-22.5-12.77a1.66 1.66 0 0 1 .45-1.18c6.13 3.67 14.33 5.46 24.89 5.46 8 0 18.41-1.07 26-5.72a2.16 2.16 0 0 1 .17.95z" fill="#1c1d1c"/></g></svg>