<svg clip-rule="evenodd" fill-rule="evenodd" stroke-linejoin="round" stroke-miterlimit="2" viewBox="0 0 320 320" xmlns="http://www.w3.org/2000/svg"><g transform="matrix(.926966 0 0 .926966 -45.51301724 -214.20692048)"><path d="m278.12 392.81c-6.85-9.86-21.31-23.26-48.13-23.26-28.62 0-43 14.07-48.91 24.72-11.91 21.3 9.7 55.63 17.74 70 4.11 7.33 4.16 13.4 6 17.88 1.047-.014 2.067.34 2.88 1 4.69 3.94 12.1 5.85 22.63 5.85 10.93 0 19.28-2.14 23.51-6 .937-.863 2.203-1.283 3.47-1.15 2.1-4.37 2.51-10.15 6.34-16.84 7.81-13.68 29.54-50.51 14.47-72.2z" fill="none"/><g fill-rule="nonzero"><path d="m205.43 492.53c-.299.319-.461.743-.45 1.18.15 5.93 9.65 12.32 22.5 12.77h2.42c9.9-.23 19.66-3.64 24.3-8.5 1.56-1.64 2.33-3.24 2.29-4.76.02-.343-.041-.686-.18-1-7.58 4.65-18 5.72-26 5.72-10.55.06-18.75-1.74-24.88-5.41z" fill="#b3aac6"/><path d="m230 515.49h-2.81c-5.46-.09-9.35-.5-13.21-1.84-.004.04-.004.08 0 .12.11 4.48 6.53 7.36 16.35 7.36 6.63 0 11.9-1.5 14.44-4.11 1.011-.958 1.577-2.297 1.56-3.69.005-.083.005-.167 0-.25-4.33 1.61-9.7 2.4-16.33 2.41z" fill="#b3aac6"/><path d="m315.41 291.48h-58.48c.49-10.28 8.93-14.36 8.93-29.27 0-16.22-18.34-16.93-43.84-16.93s-44.46.42-44.46 16.93c0 14.92 8.48 18.85 9 29.27h-58.56c-22.481.071-40.925 18.619-40.87 41.1v36.31s7.73-5.18 22.62-5.18c16.42 0 22.65 18.93 22.65 63.39s-6.52 60.82-22.65 60.82c-14.88 0-22.62-4.17-22.62-4.17v37.25c-.055 22.481 18.389 41.029 40.87 41.1h187.4c22.484-.066 40.935-18.616 40.88-41.1v-188.42c.055-22.481-18.389-41.029-40.87-41.1zm-89.73 36.26c0-2.776 2.284-5.06 5.06-5.06s5.06 2.284 5.06 5.06v26.93c0 2.776-2.284 5.06-5.06 5.06s-5.06-2.284-5.06-5.06zm-69.49 26.05c-.949-.949-1.483-2.238-1.483-3.58 0-2.777 2.286-5.063 5.063-5.063 1.342 0 2.631.534 3.58 1.483l19 19.05c.985.953 1.542 2.267 1.542 3.637 0 2.776-2.284 5.06-5.06 5.06-1.368 0-2.679-.555-3.632-1.537zm103.81 129.26.47.46c2.5 2.44 4.86 4.75 5 9.5.1 3.94-1.55 7.81-4.78 11.19-1.846 1.888-3.946 3.511-6.24 4.82.521 1.292.805 2.667.84 4.06.097 3.815-1.387 7.505-4.1 10.19-3 3.12-9.12 6.83-20.88 6.83-18.38 0-25.14-8.32-25.34-16.11-.049-1.608.295-3.204 1-4.65-6.05-3.89-9.87-9.33-10-15.4-.11-4.54 2.36-7.12 4.55-9.39l1-1c.85-.917 2.05-1.433 3.3-1.42-1.83-4.48-1.88-10.55-6-17.88-8-14.34-29.65-48.67-17.74-70 5.95-10.65 20.29-24.72 48.91-24.72 26.82 0 41.28 13.4 48.13 23.26 15.07 21.69-6.66 58.52-14.48 72.16-3.83 6.69-4.24 12.47-6.34 16.84 1.018.098 1.971.543 2.7 1.26zm40.89-129.26-19.05 19c-.953.982-2.264 1.537-3.632 1.537-2.776 0-5.06-2.284-5.06-5.06 0-1.37.557-2.684 1.542-3.637l19-19.05c.949-.949 2.238-1.483 3.58-1.483 2.777 0 5.063 2.286 5.063 5.063 0 1.342-.534 2.631-1.483 3.58z" fill="#b3aac6"/><path d="m182.39 372.84c.95-.949 1.484-2.238 1.484-3.58s-.534-2.631-1.484-3.58l-19-19.05c-.949-.949-2.238-1.483-3.58-1.483-2.777 0-5.063 2.286-5.063 5.063 0 1.342.534 2.631 1.483 3.58l19.05 19c1.962 1.959 5.188 1.959 7.15 0z" fill="#b3aac6"/><path d="m182.39 372.84c.95-.949 1.484-2.238 1.484-3.58s-.534-2.631-1.484-3.58l-19-19.05c-.949-.949-2.238-1.483-3.58-1.483-2.777 0-5.063 2.286-5.063 5.063 0 1.342.534 2.631 1.483 3.58l19.05 19c1.962 1.959 5.188 1.959 7.15 0z"/><path d="m293.75 346.63-19 19.05c-.985.953-1.542 2.267-1.542 3.637 0 2.776 2.284 5.06 5.06 5.06 1.368 0 2.679-.555 3.632-1.537l19.05-19c.949-.949 1.483-2.238 1.483-3.58 0-2.777-2.286-5.063-5.063-5.063-1.342 0-2.631.534-3.58 1.483z" fill="#b3aac6"/><path d="m293.75 346.63-19 19.05c-.985.953-1.542 2.267-1.542 3.637 0 2.776 2.284 5.06 5.06 5.06 1.368 0 2.679-.555 3.632-1.537l19.05-19c.949-.949 1.483-2.238 1.483-3.58 0-2.777-2.286-5.063-5.063-5.063-1.342 0-2.631.534-3.58 1.483z"/><path d="m230.74 359.73c2.776 0 5.06-2.284 5.06-5.06v-26.93c0-2.776-2.284-5.06-5.06-5.06s-5.06 2.284-5.06 5.06v26.93c0 2.776 2.284 5.06 5.06 5.06z" fill="#b3aac6"/><path d="m230.74 359.73c2.776 0 5.06-2.284 5.06-5.06v-26.93c0-2.776-2.284-5.06-5.06-5.06s-5.06 2.284-5.06 5.06v26.93c0 2.776 2.284 5.06 5.06 5.06z"/><path d="m253.83 483c-4.23 3.9-12.58 6-23.51 6-10.53 0-17.94-1.91-22.63-5.85-.813-.66-1.833-1.014-2.88-1 2.25 5.49 7.18 8.57 25.63 8.57 18.78 0 24.19-3.3 26.86-8.88-1.269-.13-2.534.293-3.47 1.16z" fill="#1c1d1c"/><path d="m230.44 490.69c-18.45 0-23.38-3.08-25.63-8.57-1.25-.013-2.45.503-3.3 1.42l-1 1c-2.19 2.27-4.66 4.85-4.55 9.39.16 6.07 4 11.51 10 15.4-.705 1.446-1.049 3.042-1 4.65.2 7.79 7 16.11 25.34 16.11 11.76 0 17.84-3.71 20.88-6.83 2.713-2.685 4.197-6.375 4.1-10.19-.035-1.393-.319-2.768-.84-4.06 2.294-1.309 4.394-2.932 6.24-4.82 3.23-3.38 4.88-7.25 4.78-11.19-.13-4.75-2.49-7.06-5-9.5l-.47-.46c-.737-.714-1.698-1.152-2.72-1.24-2.64 5.59-8.05 8.89-26.83 8.89zm14.32 26.31c-2.54 2.61-7.81 4.11-14.44 4.11-9.82 0-16.24-2.88-16.35-7.36-.004-.04-.004-.08 0-.12 3.86 1.34 7.75 1.75 13.21 1.84h2.81c6.63 0 12-.8 16.3-2.43.005.083.005.167 0 .25.03 1.395-.525 2.742-1.53 3.71zm11.73-23.76c0 1.52-.73 3.12-2.29 4.76-4.64 4.86-14.4 8.27-24.3 8.5h-2.42c-12.85-.45-22.35-6.84-22.5-12.77-.011-.437.151-.861.45-1.18 6.13 3.67 14.33 5.46 24.89 5.46 8 0 18.41-1.07 26-5.72.128.3.186.625.17.95z" fill="#b3aac6"/><path d="m230.44 490.69c-18.45 0-23.38-3.08-25.63-8.57-1.25-.013-2.45.503-3.3 1.42l-1 1c-2.19 2.27-4.66 4.85-4.55 9.39.16 6.07 4 11.51 10 15.4-.705 1.446-1.049 3.042-1 4.65.2 7.79 7 16.11 25.34 16.11 11.76 0 17.84-3.71 20.88-6.83 2.713-2.685 4.197-6.375 4.1-10.19-.035-1.393-.319-2.768-.84-4.06 2.294-1.309 4.394-2.932 6.24-4.82 3.23-3.38 4.88-7.25 4.78-11.19-.13-4.75-2.49-7.06-5-9.5l-.47-.46c-.737-.714-1.698-1.152-2.72-1.24-2.64 5.59-8.05 8.89-26.83 8.89zm14.32 26.31c-2.54 2.61-7.81 4.11-14.44 4.11-9.82 0-16.24-2.88-16.35-7.36-.004-.04-.004-.08 0-.12 3.86 1.34 7.75 1.75 13.21 1.84h2.81c6.63 0 12-.8 16.3-2.43.005.083.005.167 0 .25.03 1.395-.525 2.742-1.53 3.71zm11.73-23.76c0 1.52-.73 3.12-2.29 4.76-4.64 4.86-14.4 8.27-24.3 8.5h-2.42c-12.85-.45-22.35-6.84-22.5-12.77-.011-.437.151-.861.45-1.18 6.13 3.67 14.33 5.46 24.89 5.46 8 0 18.41-1.07 26-5.72.128.3.186.625.17.95z" fill="#1c1d1c"/></g></g></svg>