<svg clip-rule="evenodd" fill-rule="evenodd" stroke-linejoin="round" stroke-miterlimit="2" viewBox="0 0 954 552" xmlns="http://www.w3.org/2000/svg"><path d="m.00028-.00021h953.032v551.035h-953.032z" fill="#fff"/><g fill-rule="nonzero" transform="translate(-118.784 -169.983)"><g fill="#b3aac6"><path d="m493.5 356.9c-5.3 0-8-2.9-8-8.6s2.7-8.6 8-8.6 8 2.9 8 8.6c-.1 5.8-2.7 8.6-8 8.6m-7.1 6h14.1v74.1h-14.1z"/><path d="m518.9 381.9c0-14 7.2-21 21.7-21 5 0 9.5.6 13.6 1.8v14.5c-3.9-1.4-7.7-2.1-11.3-2.1-3.7 0-6.2.6-7.7 1.8s-2.2 3.2-2.2 6.1v32.4c0 2.9.7 4.9 2.2 6.1 1.4 1.2 4 1.8 7.8 1.8 3.7 0 7.5-.7 11.4-2.1v14.4c-4 1.3-8.6 1.9-13.8 1.9-14.5 0-21.7-7-21.7-21z"/><path d="m570.7 341.4h14v22.1c3.6-1.6 7.6-2.3 12-2.3s8.1 1.4 11.1 4.1 4.4 6.9 4.4 12.5v59.2h-14.3v-55.9c0-3.7-1.7-5.6-5.1-5.6-2.8 0-5.4.7-7.9 2.1v59.4h-14.1v-95.6z"/><path d="m636.7 387.6h23.8v13.4h-23.8z"/><path d="m684.8 341.4h14.1v95.7h-14.1z"/><path d="m719.7 416.4v-35.6c0-6.4 1.7-11.4 5.2-15.1s8.7-5.5 15.7-5.5 12.2 1.8 15.5 5.5 5 8.7 5 15.1v24.9h-27.6v9.5c0 3.1.8 5.4 2.4 6.7 1.6 1.4 4.7 2.1 9.3 2.1s9.3-.8 14.1-2.5v13.9c-4.8 1.6-10.2 2.3-16.1 2.3-15.7.1-23.5-7-23.5-21.3m13.7-22.9h14.6v-12.6c0-5.1-2.4-7.7-7.3-7.7s-7.3 2.6-7.3 7.7z"/><path d="m807.4 361.1h2.3v14.5h-3.2c-4 0-7.9 1.3-11.7 3.9v57.5h-14.1v-75.5h13.3v5.3c2.3-1.6 3.8-2.7 4.7-3.2 2.7-1.7 5.5-2.5 8.7-2.5"/><path d="m839.3 364.8c4.5-2.5 9-3.8 13.4-3.8s8 1.4 10.7 4.2 4.1 6.9 4.1 12.4v59.4h-14.3v-55.9c0-3.7-1.7-5.6-5.1-5.6-2.6 0-5.3.8-7.9 2.5v59h-14.2v-75.5h13.3z"/><path d="m887.7 416.4v-35.6c0-6.4 1.7-11.4 5.2-15.1s8.7-5.5 15.7-5.5 12.2 1.8 15.5 5.5 5 8.7 5 15.1v24.9h-27.6v9.5c0 3.1.8 5.4 2.4 6.7 1.6 1.4 4.7 2.1 9.3 2.1s9.3-.8 14.1-2.5v13.9c-4.8 1.6-10.2 2.3-16.1 2.3-15.7.1-23.5-7-23.5-21.3m13.6-22.9h14.6v-12.6c0-5.1-2.4-7.7-7.3-7.7s-7.3 2.6-7.3 7.7z"/><path d="m954.3 387.6h23.8v13.4h-23.8z"/></g><path d="m491.8 549.1c-3.9-5.7-5.9-14.3-5.9-25.8s2-20.1 5.9-25.7 10.1-8.4 18.4-8.4c8.4 0 14.5 2.8 18.4 8.4s5.9 14.2 5.9 25.7-2 20.1-5.9 25.8-10.1 8.5-18.4 8.5-14.5-2.8-18.4-8.5m27-4.2c2-1.4 3.5-3.8 4.3-7.2s1.3-8.1 1.3-14.2-.4-10.9-1.3-14.2c-.8-3.4-2.3-5.8-4.3-7.2s-4.9-2.2-8.6-2.2-6.6.7-8.6 2.2c-2 1.4-3.5 3.8-4.3 7.2s-1.3 8.1-1.3 14.2.4 10.9 1.3 14.2c.8 3.4 2.3 5.8 4.3 7.2s4.9 2.2 8.6 2.2c3.7-.1 6.6-.8 8.6-2.2"/><path d="m582.1 539.7v-28.6c0-7.4-3-11-8.8-11-2.5 0-5.1.8-7.8 2.3-2.7 1.6-4.8 3.6-6.2 6.1v31.2l.7 16.2h-11.1l.7-16.2v-33l-.7-15.7h8.5l1.9 8.7c1.8-3 4.2-5.3 7.4-6.9 3.2-1.7 6.7-2.5 10.4-2.5 4.6 0 8.2 1.6 10.8 4.8s3.9 7.7 3.9 13.6v31l.7 16.2h-11.1z"/><path d="m612.6 539.7v-54.7l-.7-15.6h11.1l-.7 15.6v54.7l.7 16.2h-11.1z"/><path d="m643.8 479.4c-1.3-1.2-1.9-2.6-1.9-4.4s.6-3.3 1.9-4.5 2.9-1.8 4.8-1.8c1.8 0 3.4.6 4.7 1.8s1.9 2.7 1.9 4.5-.6 3.3-1.9 4.4c-1.3 1.2-2.9 1.7-4.7 1.7-1.9.1-3.5-.5-4.8-1.7m-.2 60.3v-33l-.6-15.7h11l-.7 15.7v33l.7 16.2h-11z"/><path d="m707.3 539.7v-28.6c0-7.4-3-11-8.8-11-2.5 0-5.1.8-7.8 2.3-2.7 1.6-4.8 3.6-6.2 6.1v31.2l.7 16.2h-11.2l.7-16.2v-33l-.7-15.7h8.5l1.9 8.7c1.8-3 4.2-5.3 7.4-6.9 3.2-1.7 6.7-2.5 10.4-2.5 4.6 0 8.2 1.6 10.8 4.8s3.9 7.7 3.9 13.6v31l.7 16.2h-11.1z"/><path d="m740.9 548.7c-3.7-5.7-5.6-14.1-5.6-25.4 0-11 2-19.4 5.9-25.3 4-5.9 10-8.8 18.2-8.8 7.7 0 13.4 2.3 17.2 6.8 3.7 4.5 5.9 11.8 6.6 21.9l-2.4 10.4h-35.1c.1 4.5.7 8 1.7 10.7 1 2.6 2.6 4.6 4.8 5.9s5.3 1.9 9.1 1.9c4 0 7.5-.5 10.6-1.5s5.8-2.3 7.9-4.1l1.7.9-2.1 9.5c-2.4 1.9-5.1 3.4-8.2 4.2-3 .9-7 1.3-11.8 1.3-8.6.1-14.8-2.7-18.5-8.4m32.1-29.5c0-6.9-1-11.9-3.1-14.9-2-3-5.4-4.5-10.2-4.5-3.4 0-6.2.6-8.2 1.9s-3.5 3.3-4.5 6.1c-.9 2.8-1.5 6.6-1.6 11.4z"/><path d="m801.3 554.3c-1.6-1.4-2.4-3.3-2.4-5.5s.8-4.1 2.4-5.6 3.5-2.3 5.9-2.3 4.3.8 5.9 2.3 2.4 3.4 2.4 5.6-.8 4.1-2.4 5.5-3.5 2.2-5.9 2.2-4.3-.8-5.9-2.2"/><path d="m836 549.1c-3.9-5.7-5.9-14.3-5.9-25.8s2-20.1 5.9-25.7 10.1-8.4 18.4-8.4c8.4 0 14.5 2.8 18.4 8.4s5.9 14.2 5.9 25.7-2 20.1-5.9 25.8-10.1 8.5-18.4 8.5-14.4-2.8-18.4-8.5m27.1-4.2c2-1.4 3.5-3.8 4.3-7.2s1.3-8.1 1.3-14.2-.4-10.9-1.3-14.2c-.8-3.4-2.3-5.8-4.3-7.2s-4.9-2.2-8.6-2.2-6.6.7-8.6 2.2c-2 1.4-3.5 3.8-4.3 7.2s-1.3 8.1-1.3 14.2.4 10.9 1.3 14.2c.8 3.4 2.3 5.8 4.3 7.2s4.9 2.2 8.6 2.2c3.7-.1 6.5-.8 8.6-2.2"/><path d="m926.7 491.8-1.6 9.5-1.3 1c-.8-.6-2-1.2-3.8-1.6s-3.5-.6-5.3-.6c-4.8 0-8.6 2.2-11.3 6.6v33.1l.7 16.2h-11.1l.7-16.2v-33l-.7-15.7h8.5l1.7 7.4c1.6-2.6 3.6-4.6 6-6s5-2.1 7.7-2.1c4.7-.2 8 .3 9.8 1.4"/><path d="m978.8 491-.6 16.1v38.6c0 11-2.7 19.3-8.1 24.7s-13.2 8.2-23.3 8.2l-4.4-8.3.7-.9c5 0 9.4-.8 13.3-2.5s6.8-4 8.9-7 3.2-6.4 3.2-10.2v-1.2c-1.3 2.5-3.2 4.5-5.7 6s-5.1 2.2-7.9 2.2c-6.9 0-12.2-2.8-15.9-8.5-3.8-5.7-5.6-14-5.6-24.9 0-11.6 1.8-20.1 5.3-25.5s8.9-8.1 16.2-8.1c6.1 0 10.9 1.6 14.4 4.9l.6-3.6zm-10.3 50.7v-39.3c-2.7-1.5-6.4-2.3-11.3-2.3-3.6 0-6.3.7-8.3 2.1s-3.4 3.7-4.2 7-1.3 8-1.3 14.1c0 8.3 1 14.2 3 17.7s5.3 5.3 9.8 5.3c5.6.1 9.6-1.5 12.3-4.6"/><path d="m302.4 486.3c-.4.5-.5.8-.5 1.2.2 5.9 9.7 12.3 22.5 12.8h2.4c9.9-.2 19.7-3.6 24.3-8.5 1.6-1.6 2.3-3.2 2.3-4.8 0-.4 0-.7-.2-1-7.6 4.6-18 5.7-26 5.7-10.5.1-18.7-1.7-24.8-5.4" fill="#b3aac6"/><path d="m326.9 509.3h-2.8c-5.5-.1-9.4-.5-13.2-1.8v.1c.1 4.5 6.5 7.4 16.4 7.4 6.6 0 11.9-1.5 14.4-4.1 1.1-1.1 1.6-2.3 1.6-3.7v-.2c-4.3 1.5-9.7 2.3-16.4 2.3" fill="#b3aac6"/><path d="m412.4 285.3h-58.5c.5-10.3 8.9-14.4 8.9-29.3 0-16.2-18.3-16.9-43.8-16.9s-44.5.4-44.5 16.9c0 14.9 8.5 18.8 9 29.3h-58.5c-22.6 0-40.9 18.4-40.9 41.1v36.3s7.7-5.2 22.6-5.2c16.4 0 22.7 18.9 22.7 63.4s-6.5 60.8-22.7 60.8c-14.9 0-22.6-4.2-22.6-4.2v37.2c0 22.7 18.3 41.1 40.9 41.1h187.4c22.6 0 40.9-18.4 40.9-41.1v-188.3c-.1-22.7-18.4-41.1-40.9-41.1m-89.8 36.2c0-2.8 2.3-5.1 5.1-5.1s5.1 2.3 5.1 5.1v26.9c0 2.8-2.3 5.1-5.1 5.1s-5.1-2.3-5.1-5.1zm-69.5 26.1c-2-2-2-5.2 0-7.2s5.2-2 7.2 0l19 19c2 2 2 5.2 0 7.2-1 1-2.3 1.5-3.6 1.5s-2.6-.5-3.6-1.5zm103.9 129.3.5.5c2.5 2.4 4.9 4.7 5 9.5.1 3.9-1.6 7.8-4.8 11.2-1.7 1.8-3.8 3.4-6.2 4.8.5 1.3.8 2.7.8 4.1.1 3.8-1.3 7.3-4.1 10.2-3 3.1-9.1 6.8-20.9 6.8-18.4 0-25.1-8.3-25.3-16.1 0-1.7.4-3.3 1-4.6-6.1-3.9-9.9-9.3-10-15.4-.1-4.5 2.4-7.1 4.5-9.4.3-.3.6-.7 1-1 .9-1 2.1-1.4 3.3-1.4-1.8-4.5-1.9-10.6-6-17.9-8-14.3-29.6-48.7-17.7-70 6-10.7 20.3-24.7 48.9-24.7 26.8 0 41.3 13.4 48.1 23.3 15.1 21.7-6.7 58.5-14.5 72.2-3.8 6.7-4.2 12.5-6.3 16.8.9-.1 1.9.3 2.7 1.1m40.9-129.3-19 19c-1 1-2.3 1.5-3.6 1.5s-2.6-.5-3.6-1.5c-2-2-2-5.2 0-7.2l19-19c2-2 5.2-2 7.2 0 1.9 2 1.9 5.2 0 7.2" fill="#b3aac6"/><path d="m279.3 366.6c2-2 2-5.2 0-7.2l-19-19c-2-2-5.2-2-7.2 0s-2 5.2 0 7.2l19 19c1 1 2.3 1.5 3.6 1.5 1.4 0 2.7-.5 3.6-1.5" fill="#b3aac6"/><path d="m279.3 366.6c2-2 2-5.2 0-7.2l-19-19c-2-2-5.2-2-7.2 0s-2 5.2 0 7.2l19 19c1 1 2.3 1.5 3.6 1.5 1.4 0 2.7-.5 3.6-1.5"/><path d="m390.7 340.4-19 19c-2 2-2 5.2 0 7.2 1 1 2.3 1.5 3.6 1.5s2.6-.5 3.6-1.5l19-19c2-2 2-5.2 0-7.2-2-1.9-5.2-1.9-7.2 0" fill="#b3aac6"/><path d="m390.7 340.4-19 19c-2 2-2 5.2 0 7.2 1 1 2.3 1.5 3.6 1.5s2.6-.5 3.6-1.5l19-19c2-2 2-5.2 0-7.2-2-1.9-5.2-1.9-7.2 0"/><path d="m327.7 353.5c2.8 0 5.1-2.3 5.1-5.1v-26.9c0-2.8-2.3-5.1-5.1-5.1s-5.1 2.3-5.1 5.1v26.9c0 2.9 2.3 5.1 5.1 5.1" fill="#b3aac6"/><path d="m327.7 353.5c2.8 0 5.1-2.3 5.1-5.1v-26.9c0-2.8-2.3-5.1-5.1-5.1s-5.1 2.3-5.1 5.1v26.9c0 2.9 2.3 5.1 5.1 5.1"/><path d="m350.8 476.8c-4.2 3.9-12.6 6-23.5 6-10.5 0-17.9-1.9-22.6-5.9-.8-.7-1.9-1-2.9-1 2.2 5.5 7.2 8.6 25.6 8.6 18.8 0 24.2-3.3 26.9-8.9-1.3-.1-2.5.3-3.5 1.2" fill="#1c1d1c"/><path d="m327.4 484.5c-18.4 0-23.4-3.1-25.6-8.6-1.2 0-2.4.5-3.3 1.4-.3.4-.7.7-1 1-2.2 2.3-4.7 4.8-4.5 9.4.2 6.1 4 11.5 10 15.4-.7 1.4-1.1 2.9-1 4.6.2 7.8 7 16.1 25.3 16.1 11.8 0 17.8-3.7 20.9-6.8 2.8-2.9 4.2-6.4 4.1-10.2 0-1.4-.3-2.7-.8-4.1 2.4-1.4 4.5-3 6.2-4.8 3.2-3.4 4.9-7.3 4.8-11.2-.1-4.8-2.5-7.1-5-9.5l-.5-.5c-.8-.7-1.7-1.1-2.7-1.2-2.7 5.7-8.1 9-26.9 9m14.3 26.3c-2.5 2.6-7.8 4.1-14.4 4.1-9.8 0-16.2-2.9-16.4-7.4v-.1c3.9 1.3 7.8 1.7 13.2 1.8h2.8c6.6 0 12-.8 16.3-2.4v.2c.1 1.5-.4 2.7-1.5 3.8m11.7-23.8c0 1.5-.7 3.1-2.3 4.8-4.6 4.9-14.4 8.3-24.3 8.5h-2.4c-12.9-.5-22.4-6.8-22.5-12.8 0-.4 0-.6.5-1.2 6.1 3.7 14.3 5.5 24.9 5.5 8 0 18.4-1.1 26-5.7.1.3.1.6.1.9" fill="#b3aac6"/><path d="m327.4 484.5c-18.4 0-23.4-3.1-25.6-8.6-1.2 0-2.4.5-3.3 1.4-.3.4-.7.7-1 1-2.2 2.3-4.7 4.8-4.5 9.4.2 6.1 4 11.5 10 15.4-.7 1.4-1.1 2.9-1 4.6.2 7.8 7 16.1 25.3 16.1 11.8 0 17.8-3.7 20.9-6.8 2.8-2.9 4.2-6.4 4.1-10.2 0-1.4-.3-2.7-.8-4.1 2.4-1.4 4.5-3 6.2-4.8 3.2-3.4 4.9-7.3 4.8-11.2-.1-4.8-2.5-7.1-5-9.5l-.5-.5c-.8-.7-1.7-1.1-2.7-1.2-2.7 5.7-8.1 9-26.9 9m14.3 26.3c-2.5 2.6-7.8 4.1-14.4 4.1-9.8 0-16.2-2.9-16.4-7.4v-.1c3.9 1.3 7.8 1.7 13.2 1.8h2.8c6.6 0 12-.8 16.3-2.4v.2c.1 1.5-.4 2.7-1.5 3.8m11.7-23.8c0 1.5-.7 3.1-2.3 4.8-4.6 4.9-14.4 8.3-24.3 8.5h-2.4c-12.9-.5-22.4-6.8-22.5-12.8 0-.4 0-.6.5-1.2 6.1 3.7 14.3 5.5 24.9 5.5 8 0 18.4-1.1 26-5.7.1.3.1.6.1.9" fill="#1c1d1c"/><path d="m201.2 638.7-.5 3.5h-18.7l.2-6.8v-20.4l-.2-6.5h18.9l-.5 3.5h-14.4v11.1h12.9l-.5 3.5h-12.4v12.1z"/><path d="m212 635.5v-20.5l-.2-6.5h4.1l-.2 6.5v20.5l.2 6.8h-4.1z"/><path d="m250.2 635.8.2 6.5h-6.6l-11.8-31.3v24.5l.2 6.8h-3.9l.2-6.8v-20.5l-.2-6.5h6.7l11.8 31.1v-24.3l-.2-6.8h3.9l-.2 6.8v20.5z"/><path d="m294.4 609.9c1.5.9 2.8 2.3 3.7 4.1s1.4 3.9 1.4 6.5c0 2.4-.5 4.6-1.4 6.4s-2.2 3.2-3.7 4.2c-1.6 1-3.3 1.4-5.1 1.4h-7.9v3.2l.2 6.8h-4.1l.2-6.8v-20.7l-.2-6.5h11.9c1.8 0 3.5.5 5 1.4zm-.7 16.9c1.2-1.4 1.9-3.5 1.9-6.4 0-5.6-2.5-8.4-7.4-8.4h-6.8v16.8h6.7c2.5 0 4.4-.6 5.6-2z"/><path d="m333.6 642.3h-5.6l-4.8-6.8-2.4-3.2h-7.3v3.2l.5 6.8h-4.4l.2-6.8v-20.5l-.2-6.5h11.9c1.9 0 3.6.5 5.1 1.4s2.8 2.3 3.7 4.1 1.4 3.9 1.4 6.5c0 2.9-.6 5.3-1.8 7.2-1.2 2-2.9 3.3-4.9 4.1l2.9 3.8zm-20.1-13.5h6.7c2.5 0 4.4-.7 5.6-2.1s1.9-3.5 1.9-6.4c0-5.6-2.5-8.4-7.4-8.4h-6.8z"/><path d="m345.5 638.5c-2.1-3-3.2-7.4-3.2-13.3 0-5.8 1.1-10.2 3.2-13.1s5.2-4.4 9.3-4.4c4 0 7.1 1.5 9.3 4.4 2.1 2.9 3.2 7.3 3.2 13.1 0 5.9-1.1 10.3-3.2 13.3s-5.2 4.5-9.2 4.5c-4.2 0-7.3-1.5-9.4-4.5zm15.7-2.5c1.4-2.2 2.1-5.8 2.1-10.8 0-4.9-.7-8.4-2.1-10.6s-3.5-3.3-6.5-3.3c-2.9 0-5.1 1.1-6.5 3.3s-2.1 5.7-2.1 10.6c0 5 .7 8.6 2.1 10.8s3.5 3.3 6.5 3.3 5.1-1.1 6.5-3.3z"/><path d="m383.6 608.5-.2 6.5v27.2c-1.7 4.4-4 7.6-6.8 9.7l-3.5-3.2.4-.4c.5 0 1-.3 1.8-1 .7-.6 1.5-1.5 2.3-2.7.8-1.1 1.5-2.4 2.1-3.8v-25.8l-.2-6.5z"/><path d="m415.2 638.7-.5 3.5h-18.7l.2-6.8v-20.4l-.2-6.5h18.9l-.5 3.5h-14.4v11.1h12.9l-.5 3.5h-12.4v12.1z"/><path d="m426 635.5v-20.5l-.2-6.5h4.1l-.2 6.5v10.9l8.1-10.9 4.2-6.5h5.6l-5.4 6.5-6.5 8.5 8.4 12 5.3 6.8h-5.5l-4.3-6.8-6.1-8.8-3.8 3.5v5.3l.2 6.8h-4.1z"/><path d="m478.3 612.3-.5.1-4.5-.6h-4.7v23.6l.2 6.8h-4.1l.2-6.8v-23.6h-4.7l-4.5.6-.5-.1.6-3.8h21.8z"/><path d="m525.3 608.5-2.3 6.8-5.9 20.3-1.8 6.8h-5.6l-1.8-6.8-5.7-20.3-2.3-6.8h4.6l1.7 6.8 6.4 23.9 6.7-23.9 1.7-6.8z"/><path d="m536.6 638.5c-2.1-3-3.2-7.4-3.2-13.3 0-5.8 1.1-10.2 3.2-13.1s5.2-4.4 9.3-4.4c4 0 7.1 1.5 9.3 4.4 2.1 2.9 3.2 7.3 3.2 13.1 0 5.9-1.1 10.3-3.2 13.3s-5.2 4.5-9.2 4.5c-4.2 0-7.3-1.5-9.4-4.5zm15.7-2.5c1.4-2.2 2.1-5.8 2.1-10.8 0-4.9-.7-8.4-2.1-10.6s-3.5-3.3-6.5-3.3c-2.9 0-5.1 1.1-6.5 3.3s-2.1 5.7-2.1 10.6c0 5 .7 8.6 2.1 10.8s3.5 3.3 6.5 3.3 5.1-1.1 6.5-3.3z"/><path d="m591.5 635.8.2 6.5h-6.6l-11.8-31.3v24.5l.2 6.8h-3.9l.2-6.8v-20.5l-.2-6.5h6.7l11.8 31.1v-24.3l-.2-6.8h3.9l-.2 6.8v20.5z"/><path d="m619 635.5v-20.5l-.2-6.5h4.1l-.2 6.5v10.9l8.1-10.9 4.2-6.5h5.6l-5.4 6.5-6.5 8.5 8.4 12 5.3 6.8h-5.5l-4.3-6.8-6.1-8.8-3.8 3.5v5.3l.2 6.8h-4.1z"/><path d="m675.1 642.3h-5.6l-4.8-6.8-2.4-3.2h-7.3v3.2l.5 6.8h-4.4l.2-6.8v-20.5l-.2-6.5h11.9c1.9 0 3.6.5 5.1 1.4s2.8 2.3 3.7 4.1 1.4 3.9 1.4 6.5c0 2.9-.6 5.3-1.8 7.2-1.2 2-2.9 3.3-4.9 4.1l2.9 3.8zm-20.1-13.5h6.7c2.5 0 4.4-.7 5.6-2.1s1.9-3.5 1.9-6.4c0-5.6-2.5-8.4-7.4-8.4h-6.8z"/><path d="m685 635.5v-20.5l-.2-6.5h4.1l-.2 6.5v20.5l.2 6.8h-4.1z"/><path d="m705.6 641.9c-1.7-.6-3.4-1.6-5.1-3.1l-.5-3.8.6-.2c3.4 2.9 6.9 4.3 10.5 4.3 2.4 0 4.3-.5 5.6-1.4 1.3-1 2-2.3 2-3.9 0-1.1-.2-2.1-.7-2.8s-1.3-1.3-2.5-1.9c-1.2-.5-3.1-1.1-5.6-1.8-3.4-.8-5.9-2-7.4-3.6-1.5-1.5-2.3-3.6-2.3-6.1 0-2.9.9-5.3 2.8-7s4.5-2.6 8-2.6c2 0 4 .3 5.8.9s3.4 1.5 4.5 2.5l-.5 3.6-.7.2c-1-1-2.3-1.9-3.9-2.6s-3.1-1-4.7-1c-2.5 0-4.4.5-5.6 1.4s-1.9 2.3-1.9 4c0 1.2.2 2.2.7 3s1.3 1.5 2.5 2 2.9 1.1 5.1 1.7c2.6.7 4.6 1.4 6.1 2.2s2.5 1.8 3.1 2.9.9 2.5.9 4.2c0 3-1 5.3-2.9 7s-4.6 2.5-8 2.5c-2.2.3-4.2 0-5.9-.6z"/><path d="m752.8 638.7-.5 3.5h-18.7l.2-6.8v-20.4l-.2-6.5h18.9l-.5 3.5h-14.4v11.1h12.9l-.5 3.5h-12.4v12.1z"/><path d="m785.3 635.8.2 6.5h-6.6l-11.8-31.3v24.5l.2 6.8h-3.9l.2-6.8v-20.5l-.2-6.5h6.7l11.8 31.1v-24.3l-.2-6.8h3.9l-.2 6.8v20.5z"/><path d="m798.1 635.5v-20.5l-.2-6.5h4.1l-.2 6.5v10.9l8.1-10.9 4.2-6.5h5.6l-5.4 6.5-6.5 8.5 8.4 12 5.3 6.8h-5.5l-4.3-6.8-6.1-8.8-3.8 3.5v5.3l.2 6.8h-4.1z"/><path d="m851.9 608.5-.2 6.5v16.7c0 3.6-.9 6.4-2.7 8.3s-4.5 2.9-8.1 2.9-6.3-1-8.1-2.9-2.7-4.7-2.7-8.3v-16.7l-.2-6.5h4.2l-.2 6.5v16.7c0 2.5.6 4.4 1.8 5.6 1.2 1.3 2.9 1.9 5.3 1.9 2.3 0 4.1-.6 5.3-1.9s1.8-3.2 1.8-5.6v-16.7l-.2-6.5z"/><path d="m883 638.7-.5 3.5h-18.7l.2-6.8v-20.4l-.2-6.5h4.1l-.2 6.5v20.5l.1 3.2z"/><path d="m910.1 612.3-.5.1-4.5-.6h-4.7v23.6l.2 6.8h-4.1l.2-6.8v-23.6h-4.7l-4.5.6-.5-.1.6-3.8h21.8z"/><path d="m941.2 608.5-.2 6.5v16.7c0 3.6-.9 6.4-2.7 8.3s-4.5 2.9-8.1 2.9-6.3-1-8.1-2.9-2.7-4.7-2.7-8.3v-16.7l-.2-6.5h4.2l-.2 6.5v16.7c0 2.5.6 4.4 1.8 5.6 1.2 1.3 2.9 1.9 5.3 1.9 2.3 0 4.1-.6 5.3-1.9s1.8-3.2 1.8-5.6v-16.7l-.2-6.5z"/><path d="m977.2 642.3h-5.6l-4.8-6.8-2.4-3.2h-7.3v3.2l.4 6.8h-4.4l.2-6.8v-20.5l-.2-6.5h11.9c1.9 0 3.6.5 5.1 1.4s2.8 2.3 3.7 4.1 1.4 3.9 1.4 6.5c0 2.9-.6 5.3-1.8 7.2-1.2 2-2.9 3.3-4.9 4.1l2.9 3.8zm-20.1-13.5h6.7c2.5 0 4.4-.7 5.6-2.1s1.9-3.5 1.9-6.4c0-5.6-2.5-8.4-7.4-8.4h-6.8z"/></g></svg>